<?xml version="1.0" encoding="UTF-8" standalone="no"?>
<!-- Created with Inkscape (http://www.inkscape.org/) -->

<svg class="logo"
   width="100.03898mm"
   height="76.157715mm"
   viewBox="0 0 100.03898 76.157715"
   version="1.1"
   id="svg1"
   inkscape:export-filename="bitmap.png"
   inkscape:export-xdpi="96"
   inkscape:export-ydpi="96"
   xmlns:inkscape="http://www.inkscape.org/namespaces/inkscape"
   xmlns:sodipodi="http://sodipodi.sourceforge.net/DTD/sodipodi-0.dtd"
   xmlns:xlink="http://www.w3.org/1999/xlink"
   xmlns="http://www.w3.org/2000/svg"
   xmlns:svg="http://www.w3.org/2000/svg">
  <sodipodi:namedview
     id="namedview1"
     pagecolor="#ffffff"
     bordercolor="#000000"
     borderopacity="0.25"
     inkscape:showpageshadow="2"
     inkscape:pageopacity="0.0"
     inkscape:pagecheckerboard="0"
     inkscape:deskcolor="#d1d1d1"
     inkscape:document-units="mm" />
  <defs
     id="defs1">
    <inkscape:path-effect
       effect="envelope"
       id="path-effect4"
       is_visible="true"
       lpeversion="1"
       yy="true"
       xx="false"
       bendpath1="m 239.49924,525.67944 c 145.69524,-49.02726 67.04988,-39.01908 199.88662,-0.45252"
       bendpath2="m 446.30516,506.44719 v 23.8438"
       bendpath3="m 241.62826,530.29099 h 204.6769"
       bendpath4="m 241.62826,506.44719 v 23.8438"
       bendpath1-nodetypes="cc" />
    <linearGradient
       inkscape:collect="always"
       xlink:href="#linearGradient12"
       id="linearGradient17"
       x1="-198.05222"
       y1="-5.5275002"
       x2="-133.64299"
       y2="-5.5275002"
       gradientUnits="userSpaceOnUse"
       gradientTransform="translate(85.244943,38.04192)" />
    <linearGradient
       id="linearGradient12"
       inkscape:collect="always">
      <stop
         style="stop-color:#808080;stop-opacity:1;"
         offset="0"
         id="stop13" />
      <stop
         style="stop-color:#808080;stop-opacity:0;"
         offset="1"
         id="stop14" />
    </linearGradient>
    <rect
       x="227.14285"
       y="543.57141"
       width="303.57144"
       height="75.714287"
       id="rect5" />
  </defs>
  <g
     inkscape:label="Layer 1"
     inkscape:groupmode="layer"
     id="layer1"
     transform="translate(-0.57678404,-0.89353476)">
    <path
       d="m 264.60702,530.00312 c -1.94376,0.0142 -3.88754,0.0283 -5.83134,0.0423 0.14232,-0.33422 0.1202,-1.55717 -0.88204,-3.01812 -2.79155,0.29183 -5.58374,0.582 -8.37658,0.87049 -1.23966,1.26031 -2.34805,1.95886 -2.53202,2.23219 -1.82847,0.013 -3.65696,0.026 -5.48547,0.0389 0.10248,-0.11377 2.83617,-0.93174 4.9108,-3.2213 2.08666,-2.29161 1.31397,-3.91655 0.99447,-4.10398 2.23935,-0.77655 4.47743,-1.55684 6.71425,-2.34081 0.30577,0.24128 3.71541,0.93647 7.12332,3.79701 3.41848,2.85286 3.49715,5.3311 3.36461,5.70334 z m -7.72846,-4.29889 c -2.52079,-2.18919 -5.03497,-2.75286 -5.21203,-2.91106 -0.0952,0.0286 -0.19041,0.0572 -0.28561,0.0858 0.16422,0.14497 0.63068,1.57462 -1.08045,3.83547 2.19328,-0.33521 4.38597,-0.67196 6.57809,-1.01023 z M 283.658,515.5366 c 0.90427,2.25815 0.15423,4.22734 -1.79766,5.63438 -1.96738,1.42486 -4.5503,2.2525 -7.66152,2.68499 -0.56543,0.0786 -0.97113,0.1269 -1.21268,0.14494 0.1249,1.4208 0.15804,3.42727 -0.43413,5.94402 -1.70681,0.0126 -3.41363,0.0251 -5.12047,0.0376 0.85493,-2.12324 1.26577,-4.60466 0.58074,-7.22764 -0.62909,-2.40876 -2.04545,-4.36466 -3.64109,-5.87399 1.02788,-0.36598 2.05549,-0.73273 3.08284,-1.10022 0.42734,-0.15286 1.27648,-0.46942 2.48912,-0.93283 1.22628,-0.46862 2.28295,-0.86555 3.19529,-1.19622 2.24599,-0.81402 4.38282,-1.17077 6.40265,-0.94915 2.00463,0.21996 3.45434,1.17961 4.11689,2.83412 z m -4.31698,1.94734 c -0.73438,-1.89883 -2.99154,-2.20319 -6.339,-1.16733 -0.84335,0.26098 -1.69667,0.59161 -2.56893,0.98297 0.96664,1.28845 1.77004,2.83517 2.19878,4.63228 0.30334,-0.0412 0.65367,-0.0989 1.0494,-0.17312 4.31966,-0.81052 6.45587,-2.21632 5.65976,-4.27477 0,-10e-6 -10e-6,-2e-5 -10e-6,-3e-5 z m 28.75687,12.19568 c -1.94267,0.0143 -3.88547,0.0287 -5.82843,0.0432 0.1171,-0.78255 -0.002,-3.57875 -1.16552,-7.34239 -2.77874,0.30391 -5.56078,0.60939 -8.34676,0.91463 -1.07812,3.5736 -2.11837,5.70051 -2.275,6.51638 -0.84976,0.006 -1.69955,0.0128 -2.54937,0.0192 -0.97845,0.007 -1.95691,0.0147 -2.93537,0.022 0.0733,-0.34059 1.80388,-2.66742 3.48021,-7.35423 0,0 0,0 0,0 0.33942,-0.94777 0.66894,-2.0013 0.95503,-3.1543 1.71311,-6.85806 0.61657,-10.99962 0.24485,-11.64517 2.22345,-0.82218 4.44614,-1.64704 6.66924,-2.47131 0.35424,0.67363 4.04949,3.80752 7.83151,11.23479 3.79183,7.41182 4.02336,12.42579 3.91961,13.21718 z m -8.17366,-10.81569 c -2.82865,-6.1271 -5.57309,-8.77123 -5.78363,-9.24714 -0.0946,0.0302 -0.18911,0.0604 -0.28368,0.0906 0.19531,0.43987 0.91508,3.99705 -0.47925,10.21939 2.18492,-0.35443 4.36695,-0.70913 6.54656,-1.06283 z m 30.17415,10.66713 c -1.79143,0.009 -3.58412,0.02 -5.37813,0.0313 -0.88614,-6.07205 -2.30141,-9.75398 -3.07162,-10.94912 -0.82418,-1.27891 -2.07486,-1.77183 -3.71198,-1.54638 -0.0117,0.002 -0.0234,0.003 -0.0351,0.005 -0.69203,0.0995 -1.35417,0.20319 -1.98528,0.31012 0.38256,3.97029 0.41184,8.04066 0.067,12.24033 -1.6874,0.0121 -3.37488,0.0243 -5.06247,0.0366 0.71643,-4.56169 0.86037,-9.67878 -0.058,-15.14049 -0.87965,-5.23144 -2.54423,-9.61219 -4.31093,-13.0563 1.01927,-0.37295 2.039,-0.74474 3.0593,-1.11505 0.35394,-0.12846 1.08149,-0.4172 2.18392,-0.86644 0.50524,-0.20564 0.99407,-0.39999 1.46715,-0.58308 0.57057,-0.22093 1.11603,-0.42522 1.6401,-0.61335 5.4263,-1.94797 9.28531,-0.2061 10.65637,5.15629 1.09034,4.26444 -0.004,7.59207 -2.82372,9.72326 0.0179,0.12441 0.0354,0.24887 0.0525,0.37339 1.2529,0.26604 2.47912,1.43013 3.55247,3.57192 1.05363,2.08824 2.55314,6.18322 3.75842,12.42193 -10e-6,3e-5 -10e-6,6e-5 -10e-6,9e-5 z m -8.55128,-23.13464 c -0.81113,-3.29467 -2.9031,-4.39495 -5.91639,-3.46998 -0.24956,0.0766 -0.49091,0.15668 -0.72393,0.24 -0.80387,0.28807 -1.50821,0.61623 -2.11229,0.97871 0.91298,2.22183 1.89606,5.28272 2.54318,9.04995 0.65987,-0.0966 1.21398,-0.18744 1.66639,-0.27455 0.12672,-0.0244 0.25098,-0.0503 0.37279,-0.0777 0,0 1e-5,0 1e-5,0 3.48546,-0.78184 5.03996,-2.91373 4.17025,-6.44634 0,-2e-5 -10e-6,-3e-5 -10e-6,-5e-5 z m 23.8162,-14.30345 c 0.0357,2.04261 0.10193,4.0885 0.19603,6.13764 -0.30248,-0.0656 -0.60255,-0.12406 -0.90041,-0.17525 -1.91859,-0.35307 -3.79621,-0.40176 -5.56445,-0.24259 0.57834,3.608 1.17542,7.64489 1.72984,12.08179 0.87389,6.99356 1.46925,13.32383 1.97884,19.59524 -1.68069,0.002 -3.365,0.006 -5.0527,0.01 0.1739,-6.00834 -0.1378,-12.49912 -1.05568,-19.28038 -0.57747,-4.26636 -1.33,-8.21284 -2.17085,-11.78403 -0.45792,0.0806 -0.95935,0.18531 -1.50724,0.31631 0,0 0,0 0,0 -1.4482,0.35077 -3.16277,0.86834 -5.20656,1.59135 -0.46306,-1.90236 -0.98586,-3.79849 -1.56764,-5.68867 1.76472,-0.5216 3.54173,-1.00331 5.3349,-1.4289 l 0,0 c 4.12338,-0.98039 8.38918,-1.58414 12.64681,-1.24623 l 0,0 c 0.38085,0.0308 0.76055,0.0688 1.13911,0.1137 z m 34.44925,37.58322 c -0.80039,-0.007 -1.60076,-0.0137 -2.40111,-0.0207 -0.9679,-0.009 -1.93538,-0.017 -2.90245,-0.0253 -1.09241,-2.46351 -3.27681,-7.42278 -4.64593,-13.32825 -1.35274,-5.83726 -1.26189,-10.11695 -1.21349,-11.27008 -0.0875,-0.0307 -0.17496,-0.0614 -0.2624,-0.0921 -0.16053,0.8292 -0.54376,2.32994 -0.91256,4.62266 -0.34915,2.17065 -0.97424,5.81517 -1.06045,10.65836 -0.0793,4.86341 0.61533,8.42381 0.97855,9.35102 -1.33946,-0.0103 -2.67824,-0.0201 -4.01637,-0.0293 -0.41364,-1.14836 -2.42142,-4.54113 -4.95448,-10.33046 -0.70883,-1.62719 -1.302,-3.13709 -1.79738,-4.49918 -1.22675,-3.38801 -1.94529,-6.15603 -2.29777,-7.75607 -0.51567,-2.3408 -0.86305,-4.67466 -1.05186,-6.95953 -0.0855,-0.0231 -0.17105,-0.046 -0.25653,-0.0688 -0.0484,1.8727 -0.27457,7.33354 0.51033,14.48881 0.80209,7.21772 2.31484,12.95669 2.94144,15.08756 -1.58995,-0.006 -3.17622,-0.0113 -4.7588,-0.0139 -0.12851,-0.57582 -1.28849,-6.42148 -1.83508,-17.11751 -0.50933,-10.15917 0.34586,-17.47009 0.44127,-19.32917 2.01126,0.52067 3.98764,1.17915 5.92836,1.89531 0.3454,0.12726 0.6902,0.25595 1.03444,0.38594 -0.21418,1.67819 -0.0571,6.51464 1.69725,13.12046 1.81503,6.79396 3.66853,10.99645 4.14391,12.82675 0.0884,0.009 0.17675,0.0172 0.26517,0.0259 -0.43572,-1.66794 -0.78441,-6.14887 0.38892,-11.67995 1.21057,-5.64886 2.64842,-8.83662 2.91439,-10.46345 1.99456,0.84814 3.9848,1.70286 5.98024,2.53932 0.2241,0.0939 0.44824,0.18773 0.67244,0.28141 -0.41225,2.54386 -0.79791,8.01905 1.33574,15.43046 2.2021,7.60622 4.90856,11.79836 5.13421,12.26984 z m 18.40759,-3.31849 c 0.57407,1.14528 1.22538,2.30723 1.9541,3.48594 -5.17213,-0.0407 -10.34333,-0.0828 -15.51365,-0.12631 -1.96981,-4.13166 -3.69642,-8.7004 -4.60151,-13.5342 -0.86608,-4.62546 -0.80103,-8.51578 -0.47251,-11.63695 4.71781,1.91224 9.45894,3.76509 14.22532,5.54869 -0.20503,1.00132 -0.33399,2.02013 -0.38665,3.05652 -3.60687,-1.27914 -6.73825,-2.39515 -9.65759,-3.36899 0.0728,1.60995 0.21076,3.55085 0.5661,5.7636 2.50492,0.58898 5.17026,1.1422 8.01102,1.68339 0.21042,1.07442 0.49155,2.16156 0.84339,3.26142 -2.868,-0.58649 -5.57036,-1.12117 -8.14149,-1.58322 0.6413,2.44248 1.56786,4.79337 2.67663,7.00908 3.33188,0.227 6.81763,0.35637 10.49684,0.44103 z m 25.69464,3.66078 c -1.50131,-0.0104 -3.0026,-0.0209 -4.50389,-0.0315 -0.28525,-0.2986 -3.64466,-1.76397 -8.71703,-5.18852 -5.23267,-3.54428 -7.64543,-6.62429 -8.21623,-7.89198 -0.0958,-0.0261 -0.19162,-0.0522 -0.28741,-0.0784 0.49337,1.86525 1.12776,3.58072 1.71271,5.07868 0.817,2.09222 2.28635,4.78147 4.93229,8.0033 -1.45121,-0.0109 -2.90241,-0.0218 -4.3536,-0.0329 -0.0439,-3.4e-4 -0.0879,-6.7e-4 -0.1318,-0.001 -0.56038,-0.86273 -1.09806,-1.73945 -1.60425,-2.62819 -1.29893,-2.2805 -2.39959,-4.65573 -3.14418,-7.09728 -0.73077,-2.39621 -1.01008,-4.49712 -1.07365,-6.30729 -0.0249,-0.70719 -0.0169,-1.37619 0.0119,-2.00545 0.0426,0.0155 0.0852,0.0309 0.12774,0.0464 1.70728,0.61941 3.41747,1.23062 5.13038,1.834 -0.0479,0.40427 1.07695,2.63276 4.70395,6.03083 3.86025,3.61112 7.01723,5.56536 8.18467,6.57602 0.0913,0.009 0.1825,0.0172 0.27376,0.0258 -1.39313,-1.55289 -2.24759,-2.92958 -2.71137,-4.08615 -0.71197,-1.7755 -1.10286,-3.54839 -1.09726,-5.3356 1.48583,0.49717 2.97344,0.98905 4.46271,1.47587 -0.28147,1.26149 -0.18403,3.00393 0.94684,5.21207 1.14629,2.23824 3.07534,4.41374 5.35373,6.40142 z m 15.22939,-4.93047 c -0.0398,0.21521 -0.02,0.4409 0.0596,0.67711 -3.05685,-0.79466 -3.79404,-0.99462 -6.85088,-1.78928 0.15458,0.61295 0.53195,1.33479 1.27091,2.17266 1.14914,1.30294 2.99355,2.64736 5.31633,3.97033 -1.70192,-0.011 -3.40384,-0.0221 -5.10576,-0.0333 -2.01915,-1.56015 -3.73375,-3.13441 -4.87653,-4.70237 -0.71797,-0.9851 -1.12704,-1.8617 -1.34157,-2.64436 -1.66066,-0.43843 -4.05817,-1.04736 -6.96523,-1.75279 -0.04,-0.53646 -0.0149,-1.06038 0.0751,-1.57179 6.11532,1.96763 12.25731,3.85321 18.41799,5.6738 z"
       id="text4"
       style="font-weight:bold;font-size:37.3333px;font-family:Candara;-inkscape-font-specification:'Candara Bold';baseline-shift:baseline;white-space:pre;fill:#26261f;fill-opacity:1"
       transform="matrix(0.3550714,0,0,0.835263,-70.342748,-403.26104)"
       aria-label="APARTMENT"
       inkscape:path-effect="#path-effect4"
       inkscape:original-d="m 264.74282,530.29099 h -5.83333 q 0,-1.20313 -1.65885,-6.8177 h -8.42187 q -1.71354,5.52343 -1.71354,6.8177 h -5.48697 q 0,-0.71094 4.24739,-11.66666 4.26562,-10.95572 4.26562,-12.0677 h 6.89062 q 0,1.03907 3.84635,11.90364 3.86458,10.84634 3.86458,11.83072 z m -8.42187,-10.29947 q -3.11718,-9.40624 -3.11718,-10.17187 h -0.29167 q 0,0.71094 -3.22656,10.17187 z m 28.56508,-7.21875 q 0,4.35677 -3.24479,6.43489 -3.22656,2.07813 -7.92968,2.07813 -0.85677,0 -1.22135,-0.0365 0,3.42708 0.20052,9.04166 h -5.12239 q 0.23698,-5.26823 0.23698,-12.41405 0,-6.5625 -0.23698,-11.32031 h 3.17187 q 0.67448,0 2.58854,-0.0547 1.91406,-0.0547 3.31771,-0.0547 3.46353,0 5.85155,1.56771 2.38802,1.5677 2.38802,4.7578 z m -4.70312,1.00261 q 0,-3.90104 -5.17708,-3.90104 -1.29427,0 -2.73437,0.27344 0.20052,3.44531 0.20052,7.80207 0.45573,0.0365 1.05729,0.0365 6.65364,0 6.65364,-4.21093 z m 28.07289,16.51561 h -5.83332 q 0,-1.20313 -1.65886,-6.8177 h -8.42187 q -1.71354,5.52343 -1.71354,6.8177 h -5.48697 q 0,-0.71094 4.24739,-11.66666 4.26562,-10.95572 4.26562,-12.0677 h 6.89062 q 0,1.03907 3.84635,11.90364 3.86458,10.84634 3.86458,11.83072 z m -8.42186,-10.29947 q -3.11719,-9.40624 -3.11719,-10.17187 h -0.29167 q 0,0.71094 -3.22655,10.17187 z m 30.46091,10.29947 h -5.39583 q -2.11458,-6.45312 -3.24479,-7.96614 -1.1302,-1.51302 -3.64583,-1.51302 -1.05729,0 -2.02343,0.0182 0,4.68489 0.16406,9.46093 h -5.0677 q 0.23698,-5.50521 0.23698,-12.41405 0,-6.63541 -0.23698,-11.32031 h 3.15364 q 0.54687,0 2.27864,-0.0547 1.75,-0.0547 3.22656,-0.0547 8.36718,0 8.36718,5.72395 0,4.53906 -4.77603,6.32552 v 0.27344 q 1.84114,0.51041 3.22656,2.8802 1.38541,2.35156 3.73697,8.64062 z m -6.83593,-16.77082 q 0,-3.6276 -4.66666,-3.6276 -1.71354,0 -3.02604,0.25521 0.20052,2.82552 0.20052,7.36457 1.0026,0.0365 1.69531,0.0365 5.79687,0 5.79687,-4.02864 z m 26.46873,-6.96354 -0.12761,3.91927 q -3.64583,-0.27344 -6.87239,-0.27344 -0.0365,3.44531 -0.0365,7.67448 0,6.56249 0.20053,12.41405 h -5.10417 q 0.23698,-5.79687 0.23698,-12.41405 0,-4.15625 -0.0729,-7.67448 -2.57032,0 -7.05469,0.29167 l 0.14584,-3.9375 z m 30.42445,23.73436 h -5.30468 q 0,-3.09896 -0.38281,-10.4453 -0.38282,-7.36458 -0.40104,-9.1875 h -0.27344 q -0.18229,1.09375 -0.96615,4.04687 -0.78385,2.95313 -2.95312,8.71354 -2.15104,5.74218 -2.15104,6.87239 h -4.02864 q 0,-1.16667 -2.07813,-6.94531 -2.05989,-5.77864 -2.69791,-8.09374 -0.63802,-2.3151 -1.02083,-4.59375 h -0.27344 q -0.0182,2.27865 -0.45573,9.77083 -0.41927,7.49218 -0.41927,9.86197 h -4.81249 q 0,-0.54688 1.31249,-10.95572 1.33073,-10.40885 1.33073,-12.77864 h 7.05468 q 0,2.04167 2.22396,9.0052 2.24219,6.96354 2.24219,8.91406 h 0.27343 q 0,-1.96875 2.53386,-8.93228 2.55208,-6.96354 2.55208,-8.98698 h 6.99999 q 0,3.77344 0.83854,13.47135 0.85677,9.67968 0.85677,10.26301 z m 20.50779,-4.01041 -0.14583,4.01041 h -15.51301 q 0.23698,-5.50521 0.23698,-12.41405 0,-6.63541 -0.23698,-11.32031 h 14.80207 l -0.20052,3.99219 q -5.46875,-0.29167 -9.91666,-0.29167 0.18229,2.53385 0.18229,5.97916 3.80989,0 8.14843,-0.20052 v 3.8099 q -4.26562,-0.1823 -8.14843,-0.1823 0,3.70052 0.14583,6.92708 4.99479,0 10.64583,-0.30989 z m 23.58852,4.01041 h -4.5026 q 0,-0.7474 -5.01302,-7.89322 -5.24999,-7.52864 -5.97916,-10.29947 h -0.29166 q 0.45573,3.99218 0.45573,7.21874 0,4.5026 0.2552,10.97395 h -4.48437 q 0.27344,-5.65104 0.27344,-12.41405 0,-6.65364 -0.27344,-11.32031 h 5.41406 q 0,0.96615 4.5026,7.71093 4.79427,7.16406 5.5052,9.71614 h 0.27344 q -0.4375,-4.0651 -0.4375,-7.29166 0,-4.9401 -0.25521,-10.13541 h 4.55729 q -0.25521,4.52083 -0.25521,11.32031 0,6.85416 0.25521,12.41405 z m 21.85675,-23.73436 -0.1276,3.91927 q -3.64583,-0.27344 -6.87239,-0.27344 -0.0365,3.44531 -0.0365,7.67448 0,6.56249 0.20052,12.41405 h -5.10416 q 0.23698,-5.79687 0.23698,-12.41405 0,-4.15625 -0.0729,-7.67448 -2.57031,0 -7.05468,0.29167 l 0.14583,-3.9375 z" />
    <rect
       style="fill:#26261f;fill-opacity:1;stroke:#26261f;stroke-width:0.470146;stroke-opacity:1"
       id="rect1"
       width="99.529854"
       height="0.77572107"
       x="0.81185704"
       y="-76.816177"
       transform="scale(1,-1)" />
    <rect
       style="fill:#808080;fill-opacity:1;stroke:#26261f;stroke-width:0.85482;stroke-dasharray:none;stroke-opacity:1"
       id="rect2"
       width="63.554466"
       height="0.52408254"
       x="-17.417397"
       y="-34.830738"
       transform="matrix(0.76786938,-0.64060644,-0.42147545,-0.90683981,0,0)" />
    <rect
       style="fill:url(#linearGradient17);fill-opacity:1;stroke:#26261f;stroke-width:0.85482;stroke-dasharray:none;stroke-opacity:1"
       id="rect3"
       width="63.554398"
       height="0.52408236"
       x="-112.37986"
       y="32.25238"
       transform="matrix(-0.76786879,-0.64060716,0.42147479,-0.90684012,0,0)" />
    <text
       xml:space="preserve"
       transform="matrix(0.4250184,0,0,0.75562692,-87.235198,-364.00214)"
       id="text5"
       style="font-style:normal;font-variant:normal;font-weight:normal;font-stretch:normal;font-size:37.3333px;line-height:normal;font-family:Candara;-inkscape-font-specification:Candara;font-variant-ligatures:normal;font-variant-position:normal;font-variant-caps:normal;font-variant-numeric:normal;font-variant-alternates:normal;font-variant-east-asian:normal;font-feature-settings:normal;text-indent:0;text-align:start;text-decoration-line:none;text-decoration-style:solid;text-decoration-color:#000000;letter-spacing:normal;word-spacing:normal;text-transform:none;writing-mode:lr-tb;direction:ltr;text-orientation:mixed;dominant-baseline:auto;baseline-shift:baseline;white-space:pre;shape-inside:url(#rect5);shape-padding:0;shape-margin:0;inline-size:0;display:inline;vector-effect:none;fill:#26261f;fill-opacity:1;stroke-width:1;stroke-linecap:butt;stroke-linejoin:miter;stroke-miterlimit:4;stroke-dasharray:none;stroke-dashoffset:0;stroke-opacity:1;-inkscape-stroke:none;stop-color:#000000"><tspan
         x="227.14258"
         y="575.29099"
         id="tspan2">NIINIVAARA</tspan></text>
  </g>
</svg>
